<svg width="331" height="43" viewBox="0 0 331 43" fill="none" xmlns="http://www.w3.org/2000/svg">
<path d="M330.261 39.7324C330.794 39.5881 331.11 39.0389 330.965 38.5058L328.613 29.8187C328.469 29.2856 327.919 28.9705 327.386 29.1148C326.853 29.2592 326.538 29.8083 326.682 30.3414L328.773 38.0633L321.051 40.1543C320.518 40.2987 320.203 40.8478 320.348 41.3809C320.492 41.914 321.041 42.2291 321.574 42.0848L330.261 39.7324ZM1.42906 39.6705C145.072 -28.5599 280.056 11.2609 329.502 39.6345L330.498 37.8998C280.611 9.27341 144.928 -30.7057 0.570943 37.8639L1.42906 39.6705Z" fill="#FF3D0B"/>
</svg>
