<svg width="374" height="44" viewBox="0 0 374 44" fill="none" xmlns="http://www.w3.org/2000/svg">
<path d="M373.927 5.37601C374.134 4.86426 373.888 4.28105 373.376 4.07339L365.036 0.689259C364.525 0.481593 363.942 0.728104 363.734 1.23986C363.526 1.75161 363.773 2.33482 364.284 2.54249L371.697 5.5506L368.689 12.9635C368.482 13.4753 368.728 14.0585 369.24 14.2661C369.752 14.4738 370.335 14.2273 370.542 13.7155L373.927 5.37601ZM372.611 4.0789C210.114 72.7635 57.4047 32.6788 1.45478 4.10939L0.545249 5.89061C56.9114 34.6726 210.244 74.8798 373.389 5.9211L372.611 4.0789Z" fill="#FF3D0B"/>
</svg>
