<svg width="37" height="37" viewBox="0 0 37 37" fill="none" xmlns="http://www.w3.org/2000/svg">
<path d="M22 24.9172C21.0474 25.304 20.0286 25.5019 19.0005 25.5C14.8583 25.5 11.5 22.3675 11.5 18.5C11.5 14.6325 14.8583 11.5 19.0005 11.5C20.068 11.5 21.0813 11.7083 22 12.0827" stroke="#F8F8F8" stroke-width="1.5" stroke-linecap="round"/>
<path d="M9.75 3.34152C12.4092 1.8031 15.4279 0.995287 18.5 1.00002C28.1652 1.00002 36 8.83477 36 18.5C36 28.1653 28.1652 36 18.5 36C8.83475 36 1 28.1653 1 18.5C1 15.3133 1.85225 12.3225 3.3415 9.75002" stroke="#F8F8F8" stroke-width="1.5" stroke-linecap="round"/>
</svg>
