<svg width="40" height="40" viewBox="0 0 40 40" fill="none" xmlns="http://www.w3.org/2000/svg">
<path d="M37.7833 0H2.21667C1.63012 0.00436114 1.06883 0.239302 0.654066 0.654066C0.239302 1.06883 0.00436114 1.63012 0 2.21667V37.7833C0.00436114 38.3699 0.239302 38.9312 0.654066 39.3459C1.06883 39.7607 1.63012 39.9956 2.21667 40H21.3667V24.5333H16.1667V18.4833H21.3667V14.0333C21.3667 8.86667 24.5167 6.05 29.15 6.05C30.7 6.05 32.25 6.05 33.8 6.28333V11.6667H30.6167C28.1 11.6667 27.6167 12.8667 27.6167 14.6167V18.4667H33.6167L32.8333 24.5167H27.6167V40H37.7833C38.3699 39.9956 38.9312 39.7607 39.3459 39.3459C39.7607 38.9312 39.9956 38.3699 40 37.7833V2.21667C39.9956 1.63012 39.7607 1.06883 39.3459 0.654066C38.9312 0.239302 38.3699 0.00436114 37.7833 0Z" fill="#F8F8F8"/>
</svg>
