<svg width="35" height="35" viewBox="0 0 35 35" fill="none" xmlns="http://www.w3.org/2000/svg">
<path d="M20.2617 2.8432C20.4002 2.32602 20.7384 1.88499 21.2019 1.61709C21.6654 1.34918 22.2164 1.27634 22.7337 1.41457C25.3442 2.09466 27.7261 3.45883 29.6337 5.3664C31.5413 7.27396 32.9055 9.65586 33.5856 12.2664C33.6604 12.5245 33.6829 12.7949 33.6519 13.0618C33.6208 13.3287 33.5368 13.5867 33.4048 13.8208C33.2727 14.0548 33.0953 14.2601 32.8829 14.4247C32.6705 14.5892 32.4274 14.7098 32.1679 14.7792C31.9083 14.8486 31.6375 14.8656 31.3713 14.829C31.1051 14.7924 30.8488 14.7031 30.6176 14.5662C30.3864 14.4294 30.1848 14.2477 30.0246 14.032C29.8645 13.8162 29.749 13.5707 29.685 13.3097C29.1835 11.3867 28.1784 9.63222 26.7731 8.22698C25.3679 6.82174 23.6134 5.81659 21.6904 5.31511C21.1732 5.17666 20.7322 4.83849 20.4643 4.37494C20.1963 3.9114 20.1235 3.36044 20.2617 2.8432ZM34.9755 26.1792C34.6546 28.6219 33.4555 30.8642 31.6022 32.4875C29.7489 34.1107 27.3681 35.0038 24.9044 35C11.1716 35 1.21898e-05 23.8284 1.21898e-05 10.0957C-0.00380566 7.63205 0.88931 5.25123 2.51256 3.39791C4.1358 1.5446 6.37817 0.345524 8.82087 0.0246402C9.5406 -0.0628169 10.2694 0.0839017 10.8992 0.443058C11.529 0.802215 12.0263 1.3547 12.3176 2.01866L15.8698 9.94933C15.8736 9.95972 15.8781 9.96984 15.8833 9.97962C16.1016 10.4898 16.1903 11.0462 16.1416 11.599C16.0928 12.1518 15.9081 12.684 15.6039 13.1482C15.5606 13.2158 15.5129 13.2805 15.4609 13.3417L12.2536 17.1631C13.4416 19.3238 15.7032 21.5651 17.8891 22.7515L21.6432 19.5543C21.7035 19.5038 21.7664 19.4567 21.8317 19.4129C22.2975 19.1004 22.8343 18.9098 23.393 18.8586C23.9516 18.8075 24.5141 18.8974 25.0289 19.1202L25.0592 19.1336L32.9815 22.6825C33.6453 22.9739 34.1976 23.4713 34.5567 24.1011C34.9158 24.7308 35.0627 25.4595 34.9755 26.1792ZM30.8848 26.1691L23.8173 23.0039L20.043 26.2128C19.9836 26.2642 19.9213 26.312 19.8562 26.3559C19.371 26.6776 18.8107 26.8679 18.23 26.9083C17.6492 26.9487 17.0679 26.8378 16.5429 26.5864C13.2649 25.0046 9.99878 21.7603 8.41365 18.5093C8.16157 17.9866 8.04894 17.4076 8.08668 16.8286C8.12442 16.2495 8.31125 15.69 8.62904 15.2045C8.67291 15.1368 8.72125 15.0722 8.77375 15.0109L11.9979 11.1878L8.83097 4.12038C7.47033 4.42023 6.25313 5.17635 5.38141 6.26324C4.50969 7.35014 4.03586 8.70244 4.03856 10.0957C4.04524 15.6276 6.24574 20.931 10.1574 24.8426C14.069 28.7543 19.3725 30.9548 24.9044 30.9615C26.2985 30.9653 27.652 30.492 28.74 29.6202C29.8279 28.7484 30.5848 27.5306 30.8848 26.1691ZM19.7939 11.6893C20.6197 11.9495 21.3705 12.4051 21.9828 13.0173C22.595 13.6296 23.0506 14.3804 23.3108 15.2061C23.4397 15.6158 23.6958 15.9738 24.042 16.228C24.3882 16.4822 24.8064 16.6194 25.2359 16.6196C25.4419 16.6194 25.6466 16.5882 25.8433 16.5271C26.3522 16.3661 26.7765 16.0102 27.0238 15.5372C27.271 15.0643 27.3209 14.5127 27.1626 14.003C26.7072 12.5572 25.9097 11.2425 24.8379 10.1707C23.766 9.09878 22.4513 8.30131 21.0055 7.84593C20.751 7.76054 20.4821 7.72674 20.2144 7.74651C19.9468 7.76627 19.6857 7.8392 19.4465 7.96103C19.2074 8.08286 18.9949 8.25115 18.8216 8.45605C18.6482 8.66096 18.5174 8.89837 18.4369 9.1544C18.3564 9.41044 18.3277 9.67996 18.3525 9.94721C18.3774 10.2145 18.4552 10.4741 18.5816 10.7109C18.7079 10.9477 18.8802 11.1569 19.0884 11.3263C19.2966 11.4958 19.5364 11.622 19.7939 11.6977V11.6893Z" fill="#F8F8F8"/>
</svg>
