<svg width="40" height="36" viewBox="0 0 40 36" fill="none" xmlns="http://www.w3.org/2000/svg">
<path d="M39.92 4.23529C38.4507 4.97647 36.8668 5.46353 35.2258 5.69647C36.905 4.57412 38.2026 2.79529 38.8132 0.656471C37.2294 1.71529 35.4738 2.45647 33.6229 2.88C32.1154 1.05882 29.9972 0 27.5929 0C23.1086 0 19.4448 4.06588 19.4448 9.08471C19.4448 9.80471 19.5211 10.5035 19.6547 11.16C12.8614 10.7788 6.81235 7.15765 2.786 1.67294C2.07996 3.00706 1.67924 4.57412 1.67924 6.22588C1.67924 9.38118 3.1104 12.1765 5.32394 13.7647C3.9691 13.7647 2.70968 13.3412 1.60291 12.7059V12.7694C1.60291 17.1741 4.42707 20.8588 8.16719 21.6847C6.9664 22.0494 5.70577 22.1001 4.48432 21.8329C5.00261 23.6382 6.01765 25.2178 7.38676 26.3497C8.75587 27.4817 10.4102 28.109 12.1172 28.1435C9.22364 30.6856 5.63688 32.0597 1.94639 32.04C1.29759 32.04 0.648795 31.9976 0 31.9129C3.62562 34.4965 7.9382 36 12.5561 36C27.5929 36 35.8555 22.1506 35.8555 10.1435C35.8555 9.74118 35.8555 9.36 35.8364 8.95765C37.4393 7.68706 38.8132 6.07765 39.92 4.23529Z" fill="white"/>
</svg>
