<svg width="40" height="40" viewBox="0 0 40 40" fill="none" xmlns="http://www.w3.org/2000/svg">
<path d="M34.0854 5.8201C32.2472 3.96796 30.0577 2.49945 27.6446 1.50022C25.2314 0.500986 22.643 -0.0089602 20.0302 0.000119139C9.08276 0.000119139 0.160402 8.90009 0.160402 19.8201C0.160402 23.32 1.08271 26.72 2.80704 29.72L0 40L10.5264 37.24C13.4337 38.82 16.7019 39.66 20.0302 39.66C30.9776 39.66 39.9 30.76 39.9 19.8401C39.9 14.5401 37.8348 9.56009 34.0854 5.8201ZM20.0302 36.3C17.0628 36.3 14.1555 35.5 11.6091 34L11.0076 33.64L4.75191 35.28L6.41608 29.2L6.01508 28.58C4.36644 25.954 3.49103 22.9185 3.48874 19.8201C3.48874 10.7401 10.9073 3.34011 20.0102 3.34011C24.4212 3.34011 28.5716 5.0601 31.6794 8.1801C33.2182 9.70802 34.4377 11.5254 35.2672 13.5269C36.0966 15.5284 36.5196 17.6743 36.5115 19.8401C36.5516 28.92 29.133 36.3 20.0302 36.3ZM29.0929 23.98C28.5917 23.74 26.1455 22.5401 25.7044 22.3601C25.2433 22.2001 24.9225 22.1201 24.5816 22.6001C24.2408 23.1 23.2984 24.22 23.0177 24.54C22.737 24.88 22.4362 24.92 21.935 24.66C21.4337 24.42 19.8297 23.88 17.945 22.2001C16.4613 20.8801 15.4788 19.2601 15.178 18.7601C14.8973 18.2601 15.1379 18.0001 15.3986 17.7401C15.6191 17.5201 15.8998 17.1601 16.1405 16.8801C16.3811 16.6001 16.4813 16.3801 16.6417 16.0601C16.8021 15.7201 16.7219 15.4401 16.6016 15.2001C16.4813 14.9601 15.4788 12.5201 15.0778 11.5201C14.6768 10.5601 14.2557 10.6801 13.955 10.6601H12.9926C12.6517 10.6601 12.1304 10.7801 11.6692 11.2801C11.2281 11.7801 9.94492 12.9801 9.94492 15.4201C9.94492 17.8601 11.7294 20.2201 11.97 20.5401C12.2106 20.8801 15.4788 25.88 20.4513 28.02C21.6342 28.54 22.5565 28.84 23.2783 29.06C24.4613 29.44 25.544 29.38 26.4062 29.26C27.3686 29.12 29.3536 28.06 29.7546 26.9C30.1756 25.74 30.1756 24.76 30.0353 24.54C29.8949 24.32 29.5942 24.22 29.0929 23.98Z" fill="#F8F8F8"/>
</svg>
